<svg width="200" height="200" viewBox="0 0 200 200" fill="none" xmlns="http://www.w3.org/2000/svg">
<rect width="200" height="200" rx="100" fill="#974A99"/>
<path d="M40.6875 81.332C40.6875 78.3672 41.373 76.0117 42.7441 74.2656C44.1152 72.5078 45.9316 71.6289 48.1934 71.6289C50.5137 71.6289 52.3242 72.4492 53.625 74.0898L53.7832 71.9805H56.7539V90.543C56.7539 93.0039 56.0215 94.9434 54.5566 96.3613C53.1035 97.7793 51.1465 98.4883 48.6855 98.4883C47.3145 98.4883 45.9727 98.1953 44.6602 97.6094C43.3477 97.0234 42.3457 96.2207 41.6543 95.2012L43.3418 93.25C44.7363 94.9727 46.4414 95.834 48.457 95.834C50.0391 95.834 51.2695 95.3887 52.1484 94.498C53.0391 93.6074 53.4844 92.3535 53.4844 90.7363V89.1016C52.1836 90.6016 50.4082 91.3516 48.1582 91.3516C45.9316 91.3516 44.127 90.4551 42.7441 88.6621C41.373 86.8691 40.6875 84.4258 40.6875 81.332ZM43.957 81.7012C43.957 83.8457 44.3965 85.5332 45.2754 86.7637C46.1543 87.9824 47.3848 88.5918 48.9668 88.5918C51.0176 88.5918 52.5234 87.6602 53.4844 85.7969V77.1133C52.4883 75.2969 50.9941 74.3887 49.002 74.3887C47.4199 74.3887 46.1836 75.0039 45.293 76.2344C44.4023 77.4648 43.957 79.2871 43.957 81.7012ZM60.8145 81.3145C60.8145 79.4512 61.1777 77.7754 61.9043 76.2871C62.6426 74.7988 63.6621 73.6504 64.9629 72.8418C66.2754 72.0332 67.7695 71.6289 69.4453 71.6289C72.0352 71.6289 74.127 72.5254 75.7207 74.3184C77.3262 76.1113 78.1289 78.4961 78.1289 81.4727V81.7012C78.1289 83.5527 77.7715 85.2168 77.0566 86.6934C76.3535 88.1582 75.3398 89.3008 74.0156 90.1211C72.7031 90.9414 71.1914 91.3516 69.4805 91.3516C66.9023 91.3516 64.8105 90.4551 63.2051 88.6621C61.6113 86.8691 60.8145 84.4961 60.8145 81.543V81.3145ZM64.084 81.7012C64.084 83.8105 64.5703 85.5039 65.543 86.7812C66.5273 88.0586 67.8398 88.6973 69.4805 88.6973C71.1328 88.6973 72.4453 88.0527 73.418 86.7637C74.3906 85.4629 74.877 83.6465 74.877 81.3145C74.877 79.2285 74.3789 77.541 73.3828 76.252C72.3984 74.9512 71.0859 74.3008 69.4453 74.3008C67.8398 74.3008 66.5449 74.9395 65.5605 76.2168C64.5762 77.4941 64.084 79.3223 64.084 81.7012ZM86.6191 67.375V71.9805H90.1699V74.4941H86.6191V86.2891C86.6191 87.0508 86.7773 87.625 87.0938 88.0117C87.4102 88.3867 87.9492 88.5742 88.7109 88.5742C89.0859 88.5742 89.6016 88.5039 90.2578 88.3633V91C89.4023 91.2344 88.5703 91.3516 87.7617 91.3516C86.3086 91.3516 85.2129 90.9121 84.4746 90.0332C83.7363 89.1543 83.3672 87.9062 83.3672 86.2891V74.4941H79.9043V71.9805H83.3672V67.375H86.6191ZM108.609 79.6973H97.8691V91H94.4941V65.4062H110.35V68.1836H97.8691V76.9375H108.609V79.6973ZM117.416 91H114.164V71.9805H117.416V91ZM113.9 66.9355C113.9 66.4082 114.059 65.9629 114.375 65.5996C114.703 65.2363 115.184 65.0547 115.816 65.0547C116.449 65.0547 116.93 65.2363 117.258 65.5996C117.586 65.9629 117.75 66.4082 117.75 66.9355C117.75 67.4629 117.586 67.9023 117.258 68.2539C116.93 68.6055 116.449 68.7812 115.816 68.7812C115.184 68.7812 114.703 68.6055 114.375 68.2539C114.059 67.9023 113.9 67.4629 113.9 66.9355ZM126.17 91H122.918V64H126.17V91ZM134.449 71.9805L134.537 74.0898C135.932 72.4492 137.812 71.6289 140.18 71.6289C142.84 71.6289 144.65 72.6484 145.611 74.6875C146.244 73.7734 147.064 73.0352 148.072 72.4727C149.092 71.9102 150.293 71.6289 151.676 71.6289C155.848 71.6289 157.969 73.8379 158.039 78.2559V91H154.787V78.4492C154.787 77.0898 154.477 76.0762 153.855 75.4082C153.234 74.7285 152.191 74.3887 150.727 74.3887C149.52 74.3887 148.518 74.752 147.721 75.4785C146.924 76.1934 146.461 77.1602 146.332 78.3789V91H143.062V78.5371C143.062 75.7715 141.709 74.3887 139.002 74.3887C136.869 74.3887 135.41 75.2969 134.625 77.1133V91H131.373V71.9805H134.449ZM45.3633 130.24H57.4922V133H41.9707V107.406H45.3633V130.24ZM79.8691 121.029C79.8691 123.537 79.4473 125.729 78.6035 127.604C77.7598 129.467 76.5645 130.891 75.0176 131.875C73.4707 132.859 71.666 133.352 69.6035 133.352C67.5879 133.352 65.8008 132.859 64.2422 131.875C62.6836 130.879 61.4707 129.467 60.6035 127.639C59.748 125.799 59.3086 123.672 59.2852 121.258V119.412C59.2852 116.951 59.7129 114.777 60.5684 112.891C61.4238 111.004 62.6309 109.562 64.1895 108.566C65.7598 107.559 67.5527 107.055 69.5684 107.055C71.6191 107.055 73.4238 107.553 74.9824 108.549C76.5527 109.533 77.7598 110.969 78.6035 112.855C79.4473 114.73 79.8691 116.916 79.8691 119.412V121.029ZM76.5117 119.377C76.5117 116.342 75.9023 114.016 74.6836 112.398C73.4648 110.77 71.7598 109.955 69.5684 109.955C67.4355 109.955 65.7539 110.77 64.5234 112.398C63.3047 114.016 62.6777 116.266 62.6426 119.148V121.029C62.6426 123.971 63.2578 126.285 64.4883 127.973C65.7305 129.648 67.4355 130.486 69.6035 130.486C71.7832 130.486 73.4707 129.695 74.666 128.113C75.8613 126.52 76.4766 124.24 76.5117 121.275V119.377ZM103.828 129.643C102.961 130.885 101.748 131.816 100.189 132.438C98.6426 133.047 96.8379 133.352 94.7754 133.352C92.6895 133.352 90.8379 132.865 89.2207 131.893C87.6035 130.908 86.3496 129.514 85.459 127.709C84.5801 125.904 84.1289 123.812 84.1055 121.434V119.201C84.1055 115.346 85.002 112.357 86.7949 110.236C88.5996 108.115 91.1309 107.055 94.3887 107.055C97.0605 107.055 99.2109 107.74 100.84 109.111C102.469 110.471 103.465 112.404 103.828 114.912H100.453C99.8203 111.525 97.8047 109.832 94.4062 109.832C92.1445 109.832 90.4277 110.629 89.2559 112.223C88.0957 113.805 87.5098 116.102 87.498 119.113V121.205C87.498 124.076 88.1543 126.361 89.4668 128.061C90.7793 129.748 92.5547 130.592 94.793 130.592C96.0586 130.592 97.166 130.451 98.1152 130.17C99.0645 129.889 99.8496 129.414 100.471 128.746V122.998H94.5469V120.256H103.828V129.643ZM129.158 121.029C129.158 123.537 128.736 125.729 127.893 127.604C127.049 129.467 125.854 130.891 124.307 131.875C122.76 132.859 120.955 133.352 118.893 133.352C116.877 133.352 115.09 132.859 113.531 131.875C111.973 130.879 110.76 129.467 109.893 127.639C109.037 125.799 108.598 123.672 108.574 121.258V119.412C108.574 116.951 109.002 114.777 109.857 112.891C110.713 111.004 111.92 109.562 113.479 108.566C115.049 107.559 116.842 107.055 118.857 107.055C120.908 107.055 122.713 107.553 124.271 108.549C125.842 109.533 127.049 110.969 127.893 112.855C128.736 114.73 129.158 116.916 129.158 119.412V121.029ZM125.801 119.377C125.801 116.342 125.191 114.016 123.973 112.398C122.754 110.77 121.049 109.955 118.857 109.955C116.725 109.955 115.043 110.77 113.812 112.398C112.594 114.016 111.967 116.266 111.932 119.148V121.029C111.932 123.971 112.547 126.285 113.777 127.973C115.02 129.648 116.725 130.486 118.893 130.486C121.072 130.486 122.76 129.695 123.955 128.113C125.15 126.52 125.766 124.24 125.801 121.275V119.377Z" fill="black"/>
</svg>
